<?xml version="1.0" standalone="no"?>
<!DOCTYPE svg PUBLIC "-//W3C//DTD SVG 20010904//EN"
 "http://www.w3.org/TR/2001/REC-SVG-20010904/DTD/svg10.dtd">
<svg version="1.0" xmlns="http://www.w3.org/2000/svg"
 width="300.000000pt" height="293.000000pt" viewBox="0 0 300.000000 293.000000"
 preserveAspectRatio="xMidYMid meet">
<metadata>
Created by potrace 1.10, written by Peter Selinger 2001-2011
</metadata>
<g transform="translate(0.000000,293.000000) scale(0.100000,-0.100000)"
fill="#000000" stroke="none">
<path d="M2404 2717 c-65 -68 -165 -155 -171 -149 -2 1 -16 -9 -30 -22 -15
-14 -67 -47 -116 -73 -96 -50 -105 -72 -13 -28 70 33 198 125 268 191 96 93
152 154 142 154 -6 0 -41 -33 -80 -73z"/>
<path d="M2507 2753 c-3 -15 -6 -515 -7 -1110 l0 -1083 39 0 c71 0 139 42 164
100 12 29 26 130 18 130 -15 0 -61 -90 -61 -118 0 -40 -9 -62 -25 -62 -7 0
-25 -6 -41 -14 -19 -11 -33 -12 -46 -5 -10 5 -19 11 -19 12 -1 1 -3 490 -5
1086 -2 596 -5 1086 -8 1088 -2 2 -6 -9 -9 -24z"/>
<path d="M2403 2660 c-39 -44 -55 -80 -35 -80 7 0 85 121 80 125 -2 2 -22 -19
-45 -45z"/>
<path d="M740 2680 c-141 -16 -260 -62 -360 -140 -94 -73 -142 -134 -176 -224
-12 -34 -34 -92 -49 -131 -32 -83 -44 -234 -26 -329 27 -144 146 -298 286
-369 118 -61 175 -127 175 -204 0 -24 3 -43 8 -43 18 0 52 72 52 110 0 82 -63
158 -181 221 -141 75 -249 214 -285 365 -30 127 -1 298 72 429 62 110 197 211
352 263 69 23 92 26 227 26 124 0 164 -4 234 -22 59 -16 87 -20 95 -12 6 6 6
10 1 11 -18 1 -40 7 -85 22 -25 9 -89 20 -142 26 -104 12 -101 12 -198 1z
m-567 -829 c47 -109 103 -182 203 -261 10 -9 23 -16 28 -17 5 -1 12 -5 15 -10
3 -4 28 -19 55 -33 91 -46 154 -134 144 -203 -2 -18 -7 -13 -27 23 -27 51 -81
98 -180 155 -39 22 -86 54 -106 70 -33 28 -112 130 -114 148 0 4 -8 22 -17 40
-17 31 -47 175 -34 160 4 -5 19 -37 33 -72z"/>
<path d="M1189 2614 c-9 -11 -10 -19 -3 -21 44 -15 151 -91 215 -153 95 -92
176 -216 276 -420 255 -521 382 -783 408 -842 16 -38 32 -68 35 -68 10 0 0
1174 -10 1200 -12 28 -32 43 -95 70 l-42 18 -31 -43 -31 -44 37 -12 c20 -6 50
-21 66 -32 55 -39 56 -49 56 -497 0 -272 3 -409 10 -405 6 4 10 -6 9 -22 0
-25 -1 -26 -9 -8 -8 18 -9 17 -9 -7 -1 -35 -18 -45 -26 -16 -4 13 -25 60 -46
106 -21 45 -39 87 -39 92 0 6 -4 10 -10 10 -5 0 -10 4 -10 9 0 21 -271 570
-331 671 -21 36 -41 72 -45 80 -30 63 -217 250 -292 292 -28 17 -56 37 -60 45
-7 12 -11 12 -23 -3z m850 -279 c32 -16 57 -66 46 -92 -6 -16 -8 -16 -23 6 -9
13 -33 34 -54 47 -64 41 -37 75 31 39z"/>
<path d="M1137 2549 c-3 -13 2 -28 13 -39 19 -19 19 -19 17 20 -2 42 -21 54
-30 19z"/>
<path d="M660 2491 c-104 -33 -174 -85 -228 -170 -41 -65 -57 -112 -66 -201
-8 -76 8 -63 18 15 8 62 35 137 48 129 4 -3 8 -2 7 3 -6 32 49 96 126 147 69
45 203 79 294 73 74 -5 91 -11 91 -32 0 -19 -53 -55 -84 -57 -30 -3 -23 -13
16 -22 22 -5 38 3 93 49 42 34 62 57 54 59 -95 32 -281 35 -369 7z"/>
<path d="M1180 2267 c0 -131 0 -133 28 -167 19 -22 31 -30 36 -22 4 7 3 12 -3
12 -27 0 -42 218 -15 227 11 4 124 -104 124 -119 0 -4 5 -8 10 -8 20 0 -19 57
-90 133 -40 43 -76 77 -81 77 -5 0 -9 -60 -9 -133z"/>
<path d="M635 2337 c-48 -34 -74 -64 -81 -92 -3 -14 -10 -25 -15 -25 -5 0 -9
-15 -9 -32 0 -31 2 -29 23 23 24 56 47 86 101 127 39 29 21 28 -19 -1z"/>
<path d="M704 2336 c-157 -73 -195 -278 -79 -430 30 -39 105 -90 148 -100 l27
-6 0 157 c0 202 -8 218 -121 258 -47 17 -49 2 -4 -23 16 -9 38 -25 49 -34 11
-10 22 -18 26 -18 3 0 6 -24 7 -52 1 -29 -1 -47 -4 -41 -2 7 -3 14 -1 17 4 5
-39 39 -71 56 -16 8 -10 -1 17 -27 l42 -40 0 -108 0 -109 -32 30 c-88 81 -119
136 -122 220 -3 55 -1 61 16 56 10 -2 18 1 18 7 0 6 -7 11 -15 11 -8 0 -15 5
-15 10 0 21 30 70 49 80 25 13 41 13 21 0 -12 -8 -12 -10 -1 -10 20 0 197 88
211 105 22 27 -105 20 -166 -9z"/>
<path d="M2211 2336 c45 -31 79 -83 80 -122 0 -16 5 -38 10 -49 7 -14 8 -3 5
38 -6 74 -47 127 -121 155 -5 2 6 -8 26 -22z"/>
<path d="M735 2219 c42 -25 75 -64 81 -96 3 -18 9 -33 13 -33 10 0 1 72 -11
87 -23 29 70 -15 104 -49 39 -39 41 -46 40 -153 0 -108 0 -105 -37 -121 -19
-7 -46 -14 -60 -14 -22 0 -25 4 -25 39 0 22 -4 43 -10 46 -6 4 -10 -19 -10
-60 l0 -67 43 7 c23 4 61 16 84 27 l41 21 -5 121 c-4 112 -7 123 -32 156 -34
44 -120 88 -186 96 -42 4 -47 3 -30 -7z"/>
<path d="M1180 1390 c0 -799 -3 -763 71 -798 61 -28 93 -37 85 -23 -8 12 -63
43 -70 39 -11 -8 -46 38 -51 66 -11 65 -10 1196 1 1183 12 -13 44 -84 169
-372 145 -332 375 -812 375 -783 0 4 -38 85 -84 180 -45 95 -90 189 -99 208
-31 69 -65 146 -87 195 -13 28 -25 59 -27 70 -2 10 -7 22 -11 25 -4 3 -21 37
-37 75 -15 39 -41 98 -57 133 -15 34 -28 65 -28 68 0 3 -23 52 -51 110 -46 96
-73 184 -55 184 7 0 116 -221 116 -235 0 -4 20 -50 45 -102 25 -52 45 -98 45
-103 0 -6 5 -10 11 -10 5 0 8 -4 5 -9 -3 -5 14 -51 38 -103 25 -52 46 -101 48
-109 2 -8 5 -16 8 -19 3 -3 21 -41 40 -85 18 -44 39 -87 47 -96 7 -8 13 -19
13 -24 0 -15 99 -213 160 -321 186 -327 310 -459 480 -510 62 -19 185 -23 215
-7 11 6 29 7 40 3 14 -5 30 0 55 18 76 56 159 136 170 163 7 16 17 29 23 29 6
0 8 3 5 6 -4 3 0 21 8 39 26 63 9 222 -29 273 -17 22 -18 6 -1 -39 10 -27 17
-78 18 -134 1 -82 -2 -95 -28 -143 -73 -131 -260 -219 -407 -192 -119 23 -190
61 -283 156 -100 102 -260 375 -414 709 -116 250 -121 261 -238 528 -100 230
-217 467 -230 467 -2 0 -4 -320 -4 -710z"/>
<path d="M1531 1837 c-1 -4 19 -50 43 -101 24 -52 56 -122 72 -157 26 -61 54
-110 54 -98 0 8 -86 203 -107 244 -9 17 -26 50 -39 75 -13 25 -23 41 -23 37z"/>
<path d="M955 1595 c-16 -14 -54 -35 -82 -47 l-53 -22 0 -90 c0 -95 16 -106
19 -13 1 56 12 72 73 106 28 15 39 17 46 8 6 -7 11 -59 11 -117 2 -128 11
-147 12 -24 0 49 2 119 5 157 2 37 3 67 1 67 -1 -1 -15 -12 -32 -25z"/>
<path d="M643 1521 c15 -19 31 -47 34 -62 6 -32 23 -39 23 -10 0 10 3 32 6 48
5 27 3 31 -23 36 -15 3 -37 9 -48 13 -17 7 -15 3 8 -25z"/>
<path d="M737 1513 c-4 -3 -7 -24 -7 -45 0 -39 -19 -88 -48 -121 -8 -9 -12
-20 -9 -23 10 -10 37 16 52 50 11 26 13 -67 14 -634 l1 -665 38 40 c21 22 54
54 74 70 20 17 73 62 117 100 108 94 139 117 186 140 45 23 45 23 103 70 48
39 57 42 48 20 -7 -19 -1 -19 18 1 20 19 22 41 3 25 -8 -6 -16 -8 -19 -5 -10
9 -120 -46 -207 -104 -47 -31 -134 -105 -193 -163 l-108 -106 0 678 0 679 -28
0 c-16 0 -32 -3 -35 -7z"/>
<path d="M2289 1098 c-1 -57 -2 -107 -4 -113 -1 -5 -3 -31 -3 -57 -2 -38 -5
-46 -17 -42 -8 4 -13 10 -10 14 3 5 2 10 -2 12 -11 4 -80 147 -89 181 -8 34
-24 35 -24 2 0 -21 128 -289 160 -335 7 -11 10 51 9 213 0 133 -4 227 -10 227
-5 0 -10 -46 -10 -102z"/>
<path d="M973 990 c0 -41 2 -58 4 -37 2 20 2 54 0 75 -2 20 -4 3 -4 -38z"/>
<path d="M989 715 c-3 -6 -7 -41 -8 -80 -2 -71 -10 -114 -36 -200 -8 -27 -11
-45 -6 -40 14 14 51 116 51 140 0 11 5 37 11 58 8 29 14 37 26 33 13 -5 13 -2
-2 20 -10 15 -21 39 -24 53 -4 14 -10 21 -12 16z"/>
<path d="M2735 608 c-18 -81 -76 -152 -155 -187 -25 -11 -37 -21 -28 -21 31 0
98 41 137 86 36 41 73 136 58 150 -3 3 -8 -10 -12 -28z"/>
<path d="M1172 584 c-21 -10 -19 -12 30 -22 29 -5 54 -9 56 -7 2 1 -12 11 -30
22 -27 15 -37 17 -56 7z"/>
</g>
</svg>
